# xmcd CD database file
#
# Track frame offsets:
#	150
#	92207
#	148295
#
# Disc length: 2317 seconds
#
# Revision: 1
# Processed by: cddbd v1.5.1PL0 Copyright (c) Steve Scherf et al.
# Submitted via: CDex 1.51
#
DISCID=28090b03
DTITLE=Sonny Rollins - East Broadway Run Down
DYEAR=1966
DGENRE=Jazz
TTITLE0=East Broadway Run Down
TTITLE1=Blessing In Disguise
TTITLE2=We Kiss In A Shadow
EXTD=YEAR: 1966
EXTT0=
EXTT1=
EXTT2=
PLAYORDER=
